<svg width="13" height="13" viewBox="0 0 13 13" fill="none" xmlns="http://www.w3.org/2000/svg">
<path fill-rule="evenodd" clip-rule="evenodd" d="M0.656854 0.656867C0.26633 1.04739 0.26633 1.68056 0.656854 2.07108L4.89949 6.31372L0.656854 10.5564C0.26633 10.9469 0.26633 11.5801 0.656854 11.9706C1.04738 12.3611 1.68054 12.3611 2.07107 11.9706L6.31371 7.72793L10.5563 11.9706C10.9469 12.3611 11.58 12.3611 11.9706 11.9706C12.3611 11.5801 12.3611 10.9469 11.9706 10.5564L7.72792 6.31372L11.9706 2.07108C12.3611 1.68056 12.3611 1.04739 11.9706 0.656867C11.58 0.266342 10.9469 0.266342 10.5563 0.656867L6.31371 4.89951L2.07107 0.656867C1.68054 0.266342 1.04738 0.266342 0.656854 0.656867Z" fill="#ADB3B9"/>
</svg>
