<svg width="23" height="23" viewBox="0 0 23 23" fill="none" xmlns="http://www.w3.org/2000/svg">
<path d="M11.3025 23C11.181 22.8175 10.9987 22.6146 10.7556 22.3915C10.5328 22.1684 10.2999 21.9758 10.0568 21.8135C9.83399 21.6715 9.66182 21.6005 9.54029 21.6005H9.47952L10.8164 14.0556L10.2087 13.8122L5.80317 20.0794C5.80317 20.0185 5.69177 19.9678 5.46896 19.9272C5.2664 19.8664 5.04359 19.8157 4.80053 19.7751C4.55746 19.7346 4.36504 19.7143 4.22325 19.7143C4.00044 19.7143 3.77763 19.7447 3.55482 19.8056L3.25099 19.5013C3.2915 19.3999 3.31176 19.2985 3.31176 19.1971C3.31176 19.0754 3.31176 18.9537 3.31176 18.832C3.31176 18.5481 3.26112 18.2134 3.15984 17.828C3.05856 17.4224 2.98767 17.2196 2.94716 17.2196L9.20608 12.8082L8.93263 12.1997L1.39762 13.5688L1.42801 13.4775C1.42801 13.3558 1.33686 13.1834 1.15456 12.9603C0.992514 12.7169 0.800088 12.4837 0.577279 12.2606C0.354469 12.0172 0.162043 11.8448 0 11.7434V11.3175C0.162043 11.1958 0.354469 11.0234 0.577279 10.8003C0.800088 10.5772 0.992514 10.3439 1.15456 10.1005C1.33686 9.85714 1.42801 9.6746 1.42801 9.55291L1.39762 9.46164L8.93263 10.8307L9.17569 10.1918L2.91678 5.81085C2.97754 5.81085 3.04844 5.60802 3.12946 5.20238C3.23074 4.77645 3.28137 4.40123 3.28137 4.07672C3.28137 3.95503 3.28137 3.85362 3.28137 3.77249C3.28137 3.67108 3.26112 3.58995 3.22061 3.5291L3.52444 3.22487C3.74725 3.28571 3.97006 3.31614 4.19287 3.31614C4.35491 3.31614 4.55746 3.29585 4.80053 3.25529C5.04359 3.21473 5.2664 3.16402 5.46896 3.10317C5.69177 3.02205 5.80317 2.9612 5.80317 2.92064L10.1783 9.21826L10.8164 8.94444L9.47952 1.39947L9.54029 1.42989C9.66182 1.42989 9.84412 1.34877 10.0872 1.18651C10.3303 1.00397 10.5632 0.801146 10.786 0.578042C11.0291 0.354937 11.2012 0.162257 11.3025 0H11.7279C11.7886 0.121693 11.9304 0.294091 12.1532 0.517195C12.3963 0.740299 12.6394 0.953263 12.8824 1.15608C13.1458 1.33862 13.3382 1.42989 13.4597 1.42989L13.5509 1.39947L12.214 8.94444L12.8217 9.21826L17.1968 2.92064C17.2373 3.00176 17.4399 3.09303 17.8045 3.19445C18.1893 3.27557 18.5236 3.31614 18.8071 3.31614C19.0502 3.31614 19.273 3.28571 19.4756 3.22487L19.7794 3.5291C19.7591 3.58995 19.7389 3.67108 19.7186 3.77249C19.7186 3.85362 19.7186 3.95503 19.7186 4.07672C19.7186 4.23898 19.7288 4.46208 19.749 4.74603C19.7895 5.0097 19.8402 5.25309 19.9009 5.47619C19.9617 5.69929 20.0225 5.81085 20.0832 5.81085L13.8243 10.1918L14.037 10.8003L21.6024 9.46164V9.55291C21.6024 9.6746 21.6834 9.86728 21.8454 10.131C22.0277 10.3743 22.2303 10.6076 22.4531 10.8307C22.6759 11.0538 22.8582 11.2059 23 11.287V11.713C22.8582 11.7941 22.6759 11.9563 22.4531 12.1997C22.2303 12.4431 22.0277 12.6865 21.8454 12.9299C21.6834 13.1733 21.6024 13.3558 21.6024 13.4775V13.5688L14.037 12.1997L13.7939 12.8082L20.0528 17.2196C20.0123 17.2196 19.9617 17.3311 19.9009 17.5542C19.8402 17.7571 19.7895 17.9903 19.749 18.254C19.7085 18.4974 19.6882 18.69 19.6882 18.832C19.6882 18.9537 19.6882 19.0754 19.6882 19.1971C19.7085 19.2985 19.7288 19.3999 19.749 19.5013L19.4452 19.8056C19.2426 19.7447 19.0198 19.7143 18.7768 19.7143C18.5134 19.7143 18.1792 19.765 17.7741 19.8664C17.3893 19.9475 17.1968 20.0185 17.1968 20.0794L12.7913 13.8122L12.214 14.0556L13.5509 21.6005H13.4901C13.3686 21.6005 13.1761 21.6918 12.9128 21.8743C12.6697 22.0569 12.4267 22.2496 12.1836 22.4524C11.9608 22.6755 11.8089 22.858 11.7279 23H11.3025Z" fill="#323C46"/>
</svg>
